# xmcd
#
# Track frame offsets:
#	225
#	13856
#	26531
#	39974
#	57857
#	69631
#	86657
#	100518
#	121095
#	132390
#	144733
#	163980
#	180045
#	191748
#	208349
#	225404
#	241695
#	257390
#	269850
#	279829
#	290079
#	314513
#
# Disc length: 4358 seconds
#
# Revision: 2
# Processed by: cddbd v1.5.2PL0 Copyright (c) Steve Scherf et al.
# Submitted via: audiograbber 1.83.01
#
DISCID=3c110316
DTITLE=Various Artist - Porta 4 1973
DYEAR=1998
DGENRE=Folk
TTITLE0=Pozlacenej stin - Plizak
TTITLE1=Pisen bloudivyho brzdare - Termiti
TTITLE2=Kvet sakury bile - Kamaradi z Rokycan
TTITLE3=Odjizdim - Hoboes
TTITLE4=Zlato - Pacifik
TTITLE5=Poraneny koleno - Pacifik
TTITLE6=Kola noci hrmi - Priboj
TTITLE7=Ontario - Priboj
TTITLE8=Miserable - Rosa
TTITLE9=Cerveny kvitek - Letavice
TTITLE10=Nocni vlak - Blatotlacky
TTITLE11=Wabash cannonball - Blatotlacky
TTITLE12=Poupe - Mensi bratri
TTITLE13=Strelenej - Minnesengri
TTITLE14=Cheyenove - Bobri
TTITLE15=Na mne hvezdy nesviti - Hraci
TTITLE16=Leto konci - Foucmouk
TTITLE17=Vystehovalci - Pruvan
TTITLE18=Barva blue - Taxmeni
TTITLE19=Sen Jitky Vrbove - Sepie
TTITLE20=Dlouhy cerny zavoj - Ohari
TTITLE21=Jackson - Volupsije
EXTD=
EXTT0=
EXTT1=
EXTT2=
EXTT3=
EXTT4=
EXTT5=
EXTT6=
EXTT7=
EXTT8=
EXTT9=
EXTT10=
EXTT11=
EXTT12=
EXTT13=
EXTT14=
EXTT15=
EXTT16=
EXTT17=
EXTT18=
EXTT19=
EXTT20=
EXTT21=
PLAYORDER=
